<svg xmlns="http://www.w3.org/2000/svg" viewBox="0 0 410.66 105.17"><defs><style>.cls-1{fill:#fff;}.cls-2{fill:#ea73a4;}.cls-2,.cls-3,.cls-4,.cls-5,.cls-6,.cls-7,.cls-8{fill-rule:evenodd;}.cls-3{fill:#35a32c;}.cls-4{fill:#e22019;}.cls-5{fill:#603f8e;}.cls-6{fill:#e85b10;}.cls-7{fill:#e1007a;}.cls-8{fill:#3abae8;}</style></defs><g id="Camada_2" data-name="Camada 2"><g id="Layer_1" data-name="Layer 1"><path class="cls-1" d="M403.73,12.17a16.18,16.18,0,0,0-22.55,4l-10.47,15-10.46-15A16.17,16.17,0,0,0,347,9.25c-.46,0-.93,0-1.38.06a16.17,16.17,0,0,0-14.81,16.52c-1.55-.43-3.12-.83-4.68-1.18L303.3,20A31.14,31.14,0,0,0,274.35,0L272.9,0A102.5,102.5,0,0,0,257.66,1.9l-23.11,5a16.08,16.08,0,0,0-11.51,9l-15.83-3.7a16,16,0,0,0-4-.51,16.16,16.16,0,0,0-10.51,3.92,16.85,16.85,0,0,0-33.64,2l.42,8.29-7.85.4-.41-8.3a16.85,16.85,0,0,0-16.83-16H134l-10.4.52a16,16,0,0,0-15,20.61L90.9,17.5A16,16,0,0,0,79.66,18,30.23,30.23,0,0,0,55.74.65,102.69,102.69,0,0,0,44.24,0c-1.76,0-3.55.05-5.32.14L15.33,1.77a16.07,16.07,0,0,0-4.74,31.16c0,.61,0,1.22.05,1.83L13.08,70.1A16.71,16.71,0,0,0,29.69,85.62c.39,0,.77,0,1.16,0A16.65,16.65,0,0,0,46.32,67.81l-.16-2.38L52,75a16.49,16.49,0,0,0,2.54,3.2A16,16,0,0,0,64.92,98.09l19.54,6.3a16,16,0,0,0,4.94.78h0a16.06,16.06,0,0,0,10.76-28l7.13-22.11A16,16,0,0,0,119,47.89l1.15,22.82a16.83,16.83,0,0,0,16.82,16l.86,0a16.87,16.87,0,0,0,16-17.68l-.48-9.64,7.84-.4.49,9.65a16.84,16.84,0,0,0,8.32,13.68,17.84,17.84,0,0,0,.65,1.72,16.32,16.32,0,0,0,13.17,9.57,16,16,0,0,0,1.7.09A16.35,16.35,0,0,0,198.63,87l2.17-3,17,4,.63,3.65a16.22,16.22,0,0,0,16,13.53h0a15.82,15.82,0,0,0,2.76-.24,16.26,16.26,0,0,0,13.3-18.78l0-.21a16.46,16.46,0,0,0,8,2.1,17,17,0,0,0,3.55-.38,16.68,16.68,0,0,0,12.74-19.82l-.85-3.91A54.4,54.4,0,0,0,287.78,59L282.4,85.09A16.66,16.66,0,1,0,315,91.81l.81-3.9a54.55,54.55,0,0,0,11.49,1.22c1.7,0,3.43-.08,5.13-.24a31,31,0,0,0,21.36-11.54,16.9,16.9,0,0,0,33.8-.32V63.56l20.13-28.84A16.21,16.21,0,0,0,403.73,12.17Z"/><path class="cls-2" d="M380.79,77V61.41l21.36-30.6a9.37,9.37,0,0,0-15.37-10.72l-16.07,23-16.06-23a9.37,9.37,0,1,0-15.36,10.72l21.34,30.6V77a10.08,10.08,0,0,0,20.16,0Z"/><path class="cls-3" d="M265.68,58.1a47.55,47.55,0,0,0,20.5-6,24.18,24.18,0,0,0-13-45.23A94.13,94.13,0,0,0,259,8.6l-23.09,5a9.24,9.24,0,1,0,3.9,18.05l2.08-.46a13.55,13.55,0,0,0-.54,7.59l7.54,34.62a9.83,9.83,0,0,0,19.21-4.18L265.68,58.1Zm-3.69-17-3.06-14a52,52,0,0,1,12.29-2.39,7.08,7.08,0,0,1,2.94,13.5A51.6,51.6,0,0,1,262,41.11Z"/><path class="cls-4" d="M310.64,79.28a47.55,47.55,0,0,0,21.17,2.81,24.18,24.18,0,0,0,6.5-46.6,93.31,93.31,0,0,0-13.7-4.17l-23.14-4.77a9.24,9.24,0,1,0-3.75,18.08l2.08.42a13.61,13.61,0,0,0-3.56,6.72l-7.15,34.7a9.83,9.83,0,1,0,19.25,4l2.3-11.15Zm3.51-17,2.9-14.07A51.64,51.64,0,0,1,329.26,51a7.09,7.09,0,0,1-2.79,13.54A51.66,51.66,0,0,1,314.15,62.24Z"/><path class="cls-5" d="M243.76,87.25l-9-52.62a14.25,14.25,0,0,0-10.37-11.36l-18.82-4.4a9.23,9.23,0,1,0-4.22,18l4,.93a19.3,19.3,0,0,0-6.85,5.9L177.81,71.85A9.45,9.45,0,1,0,193.1,83l4.84-6.66,25.81,6,1.39,8.12a9.45,9.45,0,0,0,18.62-3.19ZM209.77,60,218,48.67l2.37,13.81Z"/><path class="cls-6" d="M185.89,16.35a10,10,0,1,0-20,1l.76,15.11-21.49,1.08-.76-15.11a10,10,0,0,0-10.14-9.51l-10.35.52a9.23,9.23,0,1,0,.9,18.43l2.13-.1a13.49,13.49,0,0,0-1.77,7.4l1.77,35.18a10,10,0,1,0,20-1l-.83-16.47,21.49-1.09.83,16.47a10,10,0,0,0,20-1Z"/><path class="cls-7" d="M15.71,8.59A9.24,9.24,0,1,0,17,27l2.12-.15a13.56,13.56,0,0,0-1.63,7.43L19.9,69.64a9.83,9.83,0,0,0,19.61-1.36L38.66,56a87.35,87.35,0,0,0,9.43-.51l9.7,15.94A10.09,10.09,0,1,0,74.86,60.66L67.11,48.73A23.42,23.42,0,0,0,55,7.44,95.64,95.64,0,0,0,39.28,7L15.71,8.59ZM36.53,25.22A51.43,51.43,0,0,1,49,24.64a6.4,6.4,0,0,1,.88,12.64,51.28,51.28,0,0,1-12.47,1.14Z"/><path class="cls-8" d="M92.23,80.32,92,80.24l10.46-32.43.24.07a9.23,9.23,0,1,0,5.67-17.57L88.81,24a9.24,9.24,0,0,0-5.67,17.58l2.26.73a13.45,13.45,0,0,0-4.27,6.29L72.91,74.09,72.68,74A9.24,9.24,0,0,0,67,91.59l19.55,6.3a9.23,9.23,0,1,0,5.67-17.57Z"/></g></g></svg>
